<?xml version="1.0" encoding="utf-8"?>
<!-- Generator: Adobe Illustrator 25.0.0, SVG Export Plug-In . SVG Version: 6.00 Build 0)  -->
<svg version="1.1" id="Layer_1" xmlns="http://www.w3.org/2000/svg" xmlns:xlink="http://www.w3.org/1999/xlink" x="0px" y="0px"
	 viewBox="0 0 492 492" style="enable-background:new 0 0 492 492;" xml:space="preserve">
<style type="text/css">
	.st0{fill:#888888;}
</style>
<g>
	<path class="st0" d="M341,254.6L175.8,419.8c-4.7,4.7-12.3,4.7-17,0l-7.8-7.8c-4.7-4.7-4.7-12.3,0-17l165.2-165.2
		c4.7-4.7,12.3-4.7,17,0l7.8,7.8C345.6,242.2,345.6,249.9,341,254.6z"/>
	<path class="st0" d="M316.2,262.2L151.1,97.1c-4.7-4.7-4.7-12.3,0-17l7.8-7.8c4.7-4.7,12.3-4.7,17,0L341,237.6
		c4.7,4.7,4.7,12.3,0,17l-7.8,7.8C328.5,266.9,320.9,266.9,316.2,262.2z"/>
</g>
</svg>
