<?xml version="1.0" encoding="utf-8"?>
<!-- Generator: Adobe Illustrator 25.0.0, SVG Export Plug-In . SVG Version: 6.00 Build 0)  -->
<svg version="1.1" id="Слой_1" xmlns="http://www.w3.org/2000/svg" xmlns:xlink="http://www.w3.org/1999/xlink" x="0px" y="0px"
	 viewBox="0 0 512 512" style="enable-background:new 0 0 512 512;" xml:space="preserve">
<style type="text/css">
	.st0{fill:none;stroke:#888888;stroke-width:40;stroke-miterlimit:10;}
	.st1{fill:#888888;}
</style>
<path class="st0" d="M451.4,492.6H60.2c-23.3,0-42.4-19.1-42.4-42.4V87c0-23.3,19.1-42.4,42.4-42.4h391.1
	c23.3,0,42.4,19.1,42.4,42.4v363.1C493.8,473.5,474.7,492.6,451.4,492.6z"/>
<rect x="31.8" y="125.6" class="st1" width="456" height="40"/>
<rect x="116.8" y="-0.4" class="st1" width="40" height="94"/>
<rect x="354.8" y="-0.4" class="st1" width="40" height="94"/>
<g>
	
		<rect x="175.1" y="342.2" transform="matrix(0.7071 -0.7071 0.7071 0.7071 -178.4045 285.9956)" class="st1" width="161.9" height="32.2"/>
	
		<rect x="175" y="250.3" transform="matrix(0.7071 0.7071 -0.7071 0.7071 263.3741 -102.9635)" class="st1" width="161.9" height="32.2"/>
</g>
</svg>
