<?xml version="1.0" encoding="utf-8"?>
<!-- Generator: Adobe Illustrator 25.0.0, SVG Export Plug-In . SVG Version: 6.00 Build 0)  -->
<svg version="1.1" id="Слой_1" xmlns="http://www.w3.org/2000/svg" xmlns:xlink="http://www.w3.org/1999/xlink" x="0px" y="0px"
	 viewBox="0 0 512 512" style="enable-background:new 0 0 512 512;" xml:space="preserve">
<style type="text/css">
	.st0{fill:none;stroke:#888888;stroke-width:40;stroke-miterlimit:10;}
	.st1{fill:#888888;}
</style>
<path class="st0" d="M451.4,492.6H60.2c-23.3,0-42.4-19.1-42.4-42.4V87c0-23.3,19.1-42.4,42.4-42.4h391.1
	c23.3,0,42.4,19.1,42.4,42.4v363.1C493.8,473.5,474.7,492.6,451.4,492.6z"/>
<rect x="31.8" y="125.6" class="st1" width="456" height="40"/>
<rect x="116.8" y="-0.4" class="st1" width="40" height="94"/>
<rect x="354.8" y="-0.4" class="st1" width="40" height="94"/>
<g>
	<path class="st1" d="M237,389.1l-93-93c-4.7-4.7-4.7-12.3,0-17l16.7-16.7c4.7-4.7,12.3-4.7,17,0l93,93c4.7,4.7,4.7,12.3,0,17
		L254,389.1C249.3,393.8,241.7,393.8,237,389.1z"/>
	<path class="st1" d="M220.8,355.9l143.5-143.5c4.7-4.7,12.3-4.7,17,0l16.7,16.7c4.7,4.7,4.7,12.3,0,17L254.5,389.6
		c-4.7,4.7-12.3,4.7-17,0l-16.7-16.7C216.1,368.2,216.1,360.6,220.8,355.9z"/>
</g>
</svg>
