<?xml version="1.0" encoding="utf-8"?>
<!-- Generator: Adobe Illustrator 25.0.0, SVG Export Plug-In . SVG Version: 6.00 Build 0)  -->
<svg version="1.1" xmlns="http://www.w3.org/2000/svg" xmlns:xlink="http://www.w3.org/1999/xlink" x="0px" y="0px"
	 viewBox="0 0 64 64" style="enable-background:new 0 0 64 64;" xml:space="preserve">
<style type="text/css">
	.st0{fill:#C1C1C1;}
</style>
<g id="Слой_1">
</g>
<g id="Слой_1__x28_копия2_x29_">
</g>
<g id="Слой_1__x28_копия_x29_">
	<path class="st0" d="M58.2,58.3L58.2,58.3c1.2-1.2,1.2-3.1,0-4.3l-22-22l22-22c1.2-1.2,1.2-3.1,0-4.3l0,0c-1.2-1.2-3.1-1.2-4.3,0
		l-22,22l-22-22c-1.2-1.2-3.1-1.2-4.3,0l0,0c-1.2,1.2-1.2,3.1,0,4.3l22,22l-22,22c-1.2,1.2-1.2,3.1,0,4.3l0,0c1.2,1.2,3.1,1.2,4.3,0
		l22-22l22,22C55.2,59.4,57.1,59.4,58.2,58.3z"/>
</g>
</svg>
