<?xml version="1.0" encoding="utf-8"?>
<!-- Generator: Adobe Illustrator 25.0.0, SVG Export Plug-In . SVG Version: 6.00 Build 0)  -->
<svg version="1.1" id="Capa_1" xmlns="http://www.w3.org/2000/svg" xmlns:xlink="http://www.w3.org/1999/xlink" x="0px" y="0px"
	 viewBox="0 0 512 512" style="enable-background:new 0 0 512 512;" xml:space="preserve">
<style type="text/css">
	.st0{fill:#888888;}
</style>
<g>
	<g>
		<path class="st0" d="M496.1,62.3l-46.4-46.4c-21.2-21.2-55.7-21.2-76.9,0c-20,20-324.8,324.8-345.2,345.2
			c-2.2,2.2-3.6,5.1-4.1,7.9L0.3,494.3c-0.9,4.9,0.6,9.8,4.1,13.3c3.5,3.5,8.5,5,13.3,4.1L143,488.5c2.9-0.5,5.7-2,7.9-4.1
			l345.2-345.2C517.3,117.9,517.3,83.6,496.1,62.3z M33.7,478.3l14-75.8l61.7,61.8L33.7,478.3z M140.3,452.6l-80.9-80.9L354.6,76.5
			l80.9,80.9L140.3,452.6z M474.9,118l-18.2,18.2l-80.9-80.9L394,37.1c9.5-9.5,25-9.5,34.5,0l46.4,46.4
			C484.4,93,484.4,108.5,474.9,118z"/>
	</g>
</g>
</svg>
