<?xml version="1.0" encoding="utf-8"?>
<!-- Generator: Adobe Illustrator 25.0.0, SVG Export Plug-In . SVG Version: 6.00 Build 0)  -->
<svg version="1.1" id="Слой_1" xmlns="http://www.w3.org/2000/svg" xmlns:xlink="http://www.w3.org/1999/xlink" x="0px" y="0px"
	 viewBox="0 0 492 492" style="enable-background:new 0 0 492 492;" xml:space="preserve">
<style type="text/css">
	.st0{fill:#888888;}
</style>
<path class="st0" d="M303.8,82.6L33.1,353.4c-1.4,1.4-2.3,3.1-2.8,4.9l-30,120.4c-0.9,3.6,0.2,7.5,2.8,10.1c2,2,4.7,3.1,7.5,3.1
	c0.9,0,1.7-0.1,2.6-0.3l120.4-30c1.9-0.5,3.6-1.4,4.9-2.8l270.7-270.7L303.8,82.6z"/>
<path class="st0" d="M476.4,45.7l-30.1-30.1c-20.1-20.1-55.2-20.1-75.4,0L334,52.5L439.5,158l36.9-36.9C486.5,111,492,97.6,492,83.4
	S486.5,55.8,476.4,45.7z"/>
</svg>
