<?xml version="1.0" encoding="utf-8"?>
<!-- Generator: Adobe Illustrator 25.0.0, SVG Export Plug-In . SVG Version: 6.00 Build 0)  -->
<svg version="1.1" id="Слой_1" xmlns="http://www.w3.org/2000/svg" xmlns:xlink="http://www.w3.org/1999/xlink" x="0px" y="0px"
	 viewBox="0 0 426.7 426.7" style="enable-background:new 0 0 426.7 426.7;" xml:space="preserve">
<style type="text/css">
	.st0{fill:#00BEF9;}
</style>
<path class="st0" d="M402.1,192.4H234.3V24.5c0-11.6-9.4-20.9-20.9-20.9c-11.6,0-21,9.4-21,20.9v167.9H24.5
	c-11.5,0-20.9,9.4-20.9,20.9c0,11.6,9.4,20.9,20.9,20.9h167.9v167.9c0,11.6,9.4,20.9,20.9,20.9c11.6,0,20.9-9.4,20.9-20.9V234.3
	h167.9c11.6,0,20.9-9.4,20.9-20.9C423.2,201.8,413.7,192.4,402.1,192.4z"/>
</svg>
